<svg width="23" height="22" viewBox="0 0 23 22" fill="none" xmlns="http://www.w3.org/2000/svg">
<path d="M11.5 21H20.5C21.0523 21 21.5 20.5523 21.5 20V2C21.5 1.44772 21.0523 1 20.5 1H11.5M11.5 21H2.5C1.94772 21 1.5 20.5523 1.5 20V2C1.5 1.44772 1.94772 1 2.5 1H11.5M11.5 21V1M14 10H19M14 13.5H19M14 17H17.5M4 10H9M4 13.5H9M4 17H7.5M17.5 5C17.5 5.55228 17.0523 6 16.5 6C15.9477 6 15.5 5.55228 15.5 5C15.5 4.44772 15.9477 4 16.5 4C17.0523 4 17.5 4.44772 17.5 5ZM7.5 5C7.5 5.55228 7.05228 6 6.5 6C5.94772 6 5.5 5.55228 5.5 5C5.5 4.44772 5.94772 4 6.5 4C7.05228 4 7.5 4.44772 7.5 5Z" stroke="white" stroke-width="2"/>
</svg>
